<svg xmlns="http://www.w3.org/2000/svg" xmlns:xlink="http://www.w3.org/1999/xlink" viewBox="0 0 300 270"><defs><filter id="w" height="1.396" width="1.198" color-interpolation-filters="sRGB" y="-.198" x="-.099"><feGaussianBlur stdDeviation="6.726"/></filter><filter id="b" height="1.883" width="1.142" color-interpolation-filters="sRGB" y="-.441" x="-.071"><feGaussianBlur stdDeviation="55.469"/></filter><filter id="F" height="1.649" width="1.757" color-interpolation-filters="sRGB" y="-.324" x="-.378"><feGaussianBlur stdDeviation="37.748"/></filter><filter id="g" height="1.751" width="1.33" color-interpolation-filters="sRGB" y="-.375" x="-.165"><feGaussianBlur stdDeviation="65.196"/></filter><filter id="i" color-interpolation-filters="sRGB"><feGaussianBlur stdDeviation="4.889"/></filter><filter id="d" color-interpolation-filters="sRGB"><feGaussianBlur stdDeviation="21.767"/></filter><filter id="h" height="2.125" width="1.325" color-interpolation-filters="sRGB" y="-.563" x="-.162"><feGaussianBlur stdDeviation="48.104"/></filter><filter id="k" height="1.42" width="1.354" color-interpolation-filters="sRGB" y="-.21" x="-.177"><feGaussianBlur stdDeviation="26.356"/></filter><filter id="n" height="1.427" width="1.191" color-interpolation-filters="sRGB" y="-.214" x="-.095"><feGaussianBlur stdDeviation="8.293"/></filter><filter id="C" height="1.426" width="1.218" color-interpolation-filters="sRGB" y="-.213" x="-.109"><feGaussianBlur stdDeviation="17.433"/></filter><filter id="r" height="1.477" width="1.259" color-interpolation-filters="sRGB" y="-.238" x="-.13"><feGaussianBlur stdDeviation="6.073"/></filter><filter id="s" height="1.259" width="3.014" color-interpolation-filters="sRGB" y="-.129" x="-1.007"><feGaussianBlur stdDeviation="26.763"/></filter><filter id="t" height="1.28" width="1.613" color-interpolation-filters="sRGB" y="-.14" x="-.307"><feGaussianBlur stdDeviation="20.4"/></filter><filter id="q" height="1.64" width="1.569" color-interpolation-filters="sRGB" y="-.32" x="-.284"><feGaussianBlur stdDeviation="49.116"/></filter><filter id="v" height="1.2" width="1.512" color-interpolation-filters="sRGB" y="-.1" x="-.256"><feGaussianBlur stdDeviation="17.961"/></filter><filter id="e" height="2.06" width="1.217" color-interpolation-filters="sRGB" y="-.53" x="-.108"><feGaussianBlur stdDeviation="61.169"/></filter><filter id="E" height="1.645" width="1.82" color-interpolation-filters="sRGB" y="-.323" x="-.41"><feGaussianBlur stdDeviation="11.18"/></filter><filter id="x" height="1.716" width="1.264" color-interpolation-filters="sRGB" y="-.358" x="-.132"><feGaussianBlur stdDeviation="11.933"/></filter><filter id="p" height="1.271" width="1.215" color-interpolation-filters="sRGB" y="-.136" x="-.108"><feGaussianBlur stdDeviation="6.193"/></filter><filter id="l" height="1.717" width="1.556" color-interpolation-filters="sRGB" y="-.359" x="-.278"><feGaussianBlur stdDeviation="25.112"/></filter><filter id="y" color-interpolation-filters="sRGB"><feGaussianBlur stdDeviation="4.643"/></filter><filter id="A" height="1.205" width="1.228" color-interpolation-filters="sRGB" y="-.102" x="-.114"><feGaussianBlur stdDeviation="8.515"/></filter><linearGradient id="c" y2="1812.6" gradientUnits="userSpaceOnUse" x2="1056.8" gradientTransform="translate(-1618.1 959.58)" y1="2608.9" x1="1068"><stop offset="0" stop-color="#7e5043"/><stop offset="1" stop-color="#a68a70"/></linearGradient><linearGradient id="D" y2="2111" gradientUnits="userSpaceOnUse" x2="-728.55" y1="1778" x1="-962.12"><stop offset="0" stop-color="#fff"/><stop offset="1" stop-color="#fff" stop-opacity="0"/></linearGradient><linearGradient id="u" y2="3123.1" gradientUnits="userSpaceOnUse" x2="251.53" y1="3123.1" x1="-21.177"><stop offset="0" stop-color="#b69476"/><stop offset="1" stop-color="#b69476" stop-opacity="0"/></linearGradient><linearGradient id="j" y2="2270.1" gradientUnits="userSpaceOnUse" x2="-94.696" y1="2154.8" x1="-11.722"><stop offset="0" stop-color="#c29b51"/><stop offset="1" stop-color="#c29b51" stop-opacity="0"/></linearGradient><linearGradient id="f" y2="727.11" gradientUnits="userSpaceOnUse" x2="3238.9" gradientTransform="translate(-3750.5 1302.1)" y1="1830.5" x1="3232.6"><stop offset="0" stop-color="#5d3323"/><stop offset="1" stop-color="#c09454"/></linearGradient><linearGradient id="a"><stop offset="0" stop-color="#653522"/><stop offset="1" stop-color="#653522" stop-opacity="0"/></linearGradient><radialGradient id="B" gradientUnits="userSpaceOnUse" cy="2289.7" cx="-140.52" gradientTransform="matrix(1 0 0 .89035 0 251.06)" r="89.516"><stop offset="0" stop-color="#1a1a1a"/><stop offset="1" stop-color="#1a1a1a" stop-opacity="0"/></radialGradient><radialGradient id="z" xlink:href="#a" gradientUnits="userSpaceOnUse" cy="2301.9" cx="-482.32" gradientTransform="matrix(1 0 0 .85534 2 380.01)" r="168.69"/><radialGradient id="m" xlink:href="#a" gradientUnits="userSpaceOnUse" cy="2301.9" cx="-482.32" gradientTransform="matrix(1 0 0 .85534 215 220.01)" r="168.69"/><radialGradient id="o" gradientUnits="userSpaceOnUse" cy="2409.8" cx="-223.96" gradientTransform="matrix(1 0 0 .53552 3 1119.3)" r="124.12"><stop offset="0" stop-color="#b19c8e"/><stop offset="1" stop-color="#a99e8b"/></radialGradient></defs><path d="M-833.75 4656c0 83.276-420.93 150.78-940.18 150.78s-940.18-67.508-940.18-150.78c0-83.276 420.93-150.78 940.18-150.78s940.18 67.508 940.18 150.78z" transform="matrix(.11195 0 0 .2505 354.782 -970.102)" opacity=".522" filter="url(#b)"/><path d="M-1301.4 2806.6l129.44 499.33s112.73 165 255.13 191.91c52.901 9.998 112.55 23.469 170.84 31.672 103.08 14.506 201.02 10.278 244.25 10.88 43.227.602 282.82-12.253 452.94-66.456 96.2-30.649 208.73-149.92 208.73-149.92l119.16-504.88z" fill-opacity=".996" fill="url(#c)" transform="translate(221.4 -245.09) scale(.13145)"/><path d="M-1423.6 2747c68.451 85.406 185.49 119.81 288.5 156.79 134.29 48.219 278.11 68.68 420.21 81.533 185.32 16.762 374.47 23.248 558.19-6.272 136.43-21.922 271.41-63.86 395.12-125.44 55.044-27.398 117.35-54.852 150.52-106.62 18.363-28.653 24.619-66.814 18.815-100.35-9.905-57.236-48.463-107.79-87.805-150.52-51.851-56.324-131.69-80.005-188.15-131.71-50.324-46-82.114-109.8-131.69-156.7-37.964-36-89.52-56.1-125.44-94.1-15.54-16.428-18.883-43.8-37.631-56.446-51.327-34.62-123.39-17.344-181.88-37.63-44.166-15.319-78.814-59.29-125.44-62.719-133.84-9.843-259.98 70.837-382.58 125.44-118.91 52.958-246.14 102.87-338.68 194.43-29.31 29.001-38.416 73.31-62.718 106.62-46.251 63.396-116.19 108.46-156.79 175.61-18.484 30.571-36.194 64.653-37.631 100.35-1.224 30.415 6.05 64.053 25.087 87.805z" transform="matrix(.12809 0 0 .13145 218.934 -242.855)" filter="url(#d)" fill="#4d4d4d"/><path d="M-1252 2831.9s83.857 113.76 142.41 150.29c106.08 66.184 233.67 98.58 357.98 112.03 64.466 6.976 128.96-18.799 193.78-17.042 74.592 2.022 147.01 33.226 221.61 31.664 65.331-1.368 131.38-13.332 192.74-35.828 65.834-24.14 122.57-68.201 182.65-104.36 60.736-36.56 179.67-113.79 179.67-113.79s-66.599.73-135.48 4.556c-68.883 3.825-1335.3-27.518-1335.3-27.518z" filter="url(#e)" fill="#8a5439" transform="translate(221.4 -245.09) scale(.13145)"/><path d="M117.687 144.041s-6.246 3.56-9.64 3.34c-2.793-.182-4.723-3.517-7.512-3.753-3.807-.322-6.053-4.663-6.053-4.663z" stroke="#000" stroke-width=".057969450000000006" fill="#242735"/><path d="M-1423.6 2732c68.451 85.406 185.49 119.81 288.5 156.79 134.29 48.219 278.11 68.68 420.21 81.533 185.32 16.762 374.47 23.248 558.19-6.272 136.43-21.922 271.41-63.86 395.12-125.44 55.044-27.398 117.35-54.852 150.52-106.62 18.363-28.653 24.619-66.814 18.815-100.35-9.905-57.236-48.463-107.79-87.805-150.52-51.851-56.324-131.69-80.005-188.15-131.71-50.324-46-82.114-109.8-131.69-156.7-37.964-36-89.52-56.1-125.44-94.1-15.54-16.428-18.883-43.8-37.631-56.446-51.327-34.62-123.39-17.344-181.88-37.63-44.166-15.319-78.814-59.29-125.44-62.719-133.84-9.843-259.98 70.837-382.58 125.44-118.91 52.958-246.14 102.87-338.68 194.43-29.31 29.001-38.416 73.31-62.718 106.62-46.251 63.396-116.19 108.46-156.79 175.61-18.484 30.571-36.194 64.653-37.631 100.35-1.224 30.415 6.05 64.053 25.087 87.805z" fill="url(#f)" transform="translate(221.4 -245.09) scale(.13145)"/><path d="M-859.23 2815c13.149 55.332 73.1 78.865 124.46 82.004 111.34 8.77 221.75-19.026 333.18-12.572 126 .574 253.67-12.716 372.25-57.477 39.269-13.89 88.284-20.64 112.73-58.195 21.432-40.923-31.426-57.218-62.904-55.87-29.727-1.963-73.235-10.701-72.536-48.797 5.813-36.989-3.91-72.608-27.063-102.02-26.596-43.419-71.341-89.322-127.25-78.422-60.507 10.698-118.85 56.348-133.11 117.59 4.128 33.412 73.384 71.552 19.889 97.907-41.241 15.321-86.505-1.44-124.51-18.611-27.701-21.2-33.485-73.508-77.588-69.127-57.878.94-104.94 39.924-155.64 62.87-51.165 27.53-91.815 71.361-145.93 93.746-17.096 9.395-42.502 23.359-35.989 46.977z" filter="url(#g)" fill="#633321" transform="translate(221.4 -245.09) scale(.13145)"/><path d="M-765.16 2496.2c31.929 73.491 158.3 27.297 238.33 31.359 71.019 3.605 142.49.921 213.24-6.272 84.459-8.587 201.38 25.07 250.87-43.902 16.032-22.34 2.581-58.569-12.544-81.533-21.697-32.942-60.96-60.606-100.35-62.718-76.561-4.105-134.3 75.91-206.97 100.35-50.519 16.99-103.61 27.818-156.79 31.36-64.8 4.314-135.75-40.386-194.43-12.545-16.247 7.71-38.525 27.408-31.359 43.902z" opacity=".92" filter="url(#h)" fill="#c49d52" transform="translate(221.4 -245.09) scale(.13145)"/><path d="M-186.25 2083.8s30.938 116.16 88.688 172.94c57.749 56.778 261.66 128.62 261.66 128.62l-20-25.437c-4.191-3.385-8.304-6.858-12.281-10.5-50.347-46.1-82.149-109.9-131.73-156.8-37.962-35.924-89.489-56.094-125.41-94.062-.39-.412-.782-.825-1.156-1.25z" filter="url(#i)" fill="url(#j)" transform="translate(221.4 -245.09) scale(.13145)"/><path d="M-1268.4 2496.3c24.041 34.017 75.748-35.258 110.87-57.653 20.444-13.035 41.525-26.245 57.653-44.348 11.468-12.872 14.777-31.81 26.609-44.348 27.014-28.628 68.59-39.881 97.566-66.522 22.434-20.627 76.513-47.019 57.653-70.957-23.324-29.604-71.761 26.289-102 48.783-35.266 26.232-56.74 67.39-88.696 97.566-29.04 27.422-62.991 49.184-93.131 75.392-22.889 19.902-84.028 37.317-66.522 62.087z" filter="url(#k)" fill="#bd944f" transform="translate(221.4 -245.09) scale(.13145)"/><path d="M-161.96 2112.7c-16.408-19.545-52.322 2.397-75.392 13.304-24.643 11.651-36.013 45.273-62.087 53.218-24.205 7.375-63.491-31.2-75.392-8.87-6.41 12.028 23.163 17.858 26.609 31.044 5.717 21.878-30.531 51.873-13.304 66.522 19.244 16.364 50.741-11.462 70.957-26.609 11.83-8.864 13.16-29.343 26.609-35.478 18.877-8.611 44.253 15.04 62.087 4.435 15.353-9.129 15.421-32.247 22.174-48.783 6.541-16.019 28.864-35.53 17.739-48.783z" filter="url(#l)" fill="url(#m)" transform="translate(221.4 -245.09) scale(.13145)"/><path d="M-325.18 2451.9l115.31 4.435 93.131-17.74-48.783-57.652-44.348-17.74z" opacity=".85" filter="url(#n)" fill="url(#o)" transform="translate(221.4 -245.09) scale(.13145)"/><path d="M96.1 45.848c6.984-.237 8.715-.234 17.402-1.79 2.106-1.04 4.676-.62 5.394-3.103.754-2.174 1.31-4.642 3.353-6.013 3.43-2.69 7.763-4.48 12.18-4.21 2.776.14 4.143-2.042 6.728-3.137 2.032-.743 4.817-1.434 5.357-3.865.205-2.688-1.159.209-3.445-.502-2.396-1.55-3.223.216-5.517-1.802-1.624-1.003-2.819-1.663-5.015-1.192-1.626.825-2.022 2.85-4.45 1.383-1.613-1.715-3.758-3.585-6.24-2.16-2.51 1.312-5.295 1.675-8.088 1.729-2.82.343-4.59 3.985-5.97 6.39-1.581 2.542-.65 2.99-.266 5.458 1.642 2.484.047 3.697-2.582 2.303-2.05-.37-1.528.058-3.611.1-2.846.971-6.33 5.08-6.4 7.9.044.929.335 1.987 1.171 2.511zM185.054 38.592c1.458-1.004 3.672.208 5.193 1.113.98.583 1.242 2.02 2.226 2.597 1.088.637 2.734 1.54 3.709.741.67-.548-.577-1.951 0-2.596.747-.834 2.282-.742 3.338-.371.66.231.824 1.252 1.484 1.484 1.056.37 2.282-.742 3.338-.371.99.347 1.325 1.687 2.226 2.225 1.108.662 2.818.18 3.709 1.113.704.738.413 2.002.742 2.967.697 2.044 1.426 4.12 2.596 5.935.902 1.398 1.993 2.732 3.339 3.71.985.715 2.426.676 3.338 1.483.54.478 1.314 1.163 1.113 1.855-.387 1.327-2.901.733-3.71 1.854-1.022 1.419-.084 3.573-.741 5.194-.632 1.558-1.47 3.317-2.968 4.08-1.322.673-2.974-.138-4.451 0-2.004.186-4.012 1.707-5.935 1.113-1.67-.517-2.016-3.271-3.71-3.71-.87-.226-1.73.989-2.596.742-1.768-.503-3.404-2.267-3.709-4.08-.156-.929 1.412-1.704 1.113-2.597-.317-.945-2.005-.68-2.597-1.483-.676-.918-.06-2.425-.741-3.339-.762-1.02-2.693-.757-3.339-1.854-.564-.96.043-2.227 0-3.339-.062-1.61.529-3.484-.37-4.822-.618-.917-3.026-.379-2.968-1.483.055-1.055 2.846-.064 2.967-1.113.153-1.329-2.799-1.002-3.338-2.226-.656-1.488-.597-3.899.742-4.822z" fill="#242735"/><path d="M-665.87 2472.3c-15.37 10.066-39.923 4.719-54.783-6.087-2.906-2.114-5.3-6.338-4.435-9.826 2.027-8.18 20.677-7.126 19.957-15.522-1.073-12.52-23.46-9.877-33.26-17.74-16.365-13.125-51.156-29.45-40.958-47.782 10.715-19.261 43.837 5.285 65.348 10.087 12.783 2.853 28.008 2.273 37.696 11.087 5.889 5.357 4.33 15.634 8.87 22.174 6.265 9.027 23.84 11.2 24.39 22.174.499 9.931-15.044 13.528-19.956 22.174-1.597 2.81-.166 7.49-2.87 9.26z" opacity=".73" filter="url(#p)" fill="#54413b" transform="translate(221.4 -245.09) scale(.13145)"/><path d="M-934.49 2251.6c-48.523 8.94-50.758 86.577-87.805 119.16-32.323 28.432-80.992 33.813-112.89 62.718-24.495 22.195-60.023 48.672-56.446 81.533 4.322 39.706 52.138 63.556 87.805 81.533 30.39 15.318 68.028 29.473 100.35 18.815 37.932-12.508 82.272-47.871 81.533-87.805-.383-20.692-50.753-24.373-43.902-43.902 12.533-35.728 75.389-7.339 112.89-12.544 25.192-3.496 70.517 12.443 75.261-12.544 4.548-23.952-50.122-16.756-62.718-37.631-19.472-32.269 12.699-80.326-6.272-112.89-17.514-30.065-53.587-62.751-87.805-56.446z" filter="url(#q)" fill-opacity=".746" fill="#653422" transform="translate(221.4 -245.09) scale(.13145)"/><path d="M104.668 111.705c-.69.01-1.376.086-1.984.176-1.399.209-2.863.925-3.709 2.058-.758 1.016-.424 2.512-.826 3.714-.526 1.574-1.515 2.963-2.062 4.53-.56 1.605-.273 3.55-1.236 4.95-.95 1.383-2.448 2.761-4.12 2.884-1.226.09-2.69-.58-3.3-1.647-.954-1.676 1.726-4.36.412-5.771-.843-.905-2.775-.81-3.71 0-1.468 1.273-1.553 3.97-.825 5.771.586 1.453 3.02 1.476 3.709 2.884 1.107 2.262-1.09 5.453-.468 7.727a196.877 196.877 0 0013.686 2.904c.236-1.434-1.007-3.391-2.086-4.449-.715-.7-2.119-.183-2.888-.822-.946-.784-1.844-2.085-1.648-3.298.343-2.11 2.76-3.346 4.536-4.535 1.484-.994 3.25-1.5 4.945-2.062 1.614-.535 3.64-.149 4.946-1.237 1.276-1.062 2.157-2.877 2.062-4.535-.09-1.6-2.216-2.538-2.473-4.12-.202-1.25 1.51-2.643.826-3.71-.73-1.138-2.267-1.434-3.787-1.412z" fill="#242735"/><path d="M-1237 2700.1s18.388 43.592 38.951 54.902c20.564 11.31 73.397 3.815 73.397 3.815s-43.913-17.715-62.631-27.63c-18.718-9.916-49.718-31.088-49.718-31.088z" opacity=".953" filter="url(#r)" fill="#522c29" transform="translate(221.4 -245.09) scale(.13145)"/><path d="M-22.174 2957.5s-34.591 120.21-44.348 181.83c-9.274 58.567-15.825 118.15-13.304 177.39 1.973 46.377 22.174 137.48 22.174 137.48s34.238-188.46 39.913-283.83c4.216-70.847-4.435-212.87-4.435-212.87z" opacity=".829" filter="url(#s)" fill="#ae8c70" transform="translate(221.4 -245.09) scale(.13145)"/><path d="M-22.174 2957.5s-34.591 120.21-44.348 181.83c-9.274 58.567-15.825 118.15-13.304 177.39 1.973 46.377 22.174 137.48 22.174 137.48s34.238-188.46 39.913-283.83c4.216-70.847-4.435-212.87-4.435-212.87z" transform="matrix(-.13145 0 0 .13145 83.338 -250.86)" opacity=".796" filter="url(#s)" fill="#b49175"/><path d="M202.57 2883.4l-38.479 109.52-35.479 93.131 8.87 70.957s-1.423 83.95-20.348 119.74c-19.323 36.543-89.348 86-89.348 86l43.174-196.87-31.044-88.696 31.044-146.35z" filter="url(#t)" fill="url(#u)" transform="translate(221.4 -245.09) scale(.13145)"/><path d="M-1246.2 2908.7l39.913 44.348 8.87 70.957 13.304 79.827 22.174 93.131 13.304 79.827 53.218 62.088 17.739-70.957-8.87-84.262 4.435-102 4.435-119.74-44.348-44.348-53.218-4.435z" filter="url(#v)" fill-opacity=".996" fill="#a68469" transform="translate(221.4 -245.09) scale(.13145)"/><path d="M-138.17 2964.5s-34.591 120.21-44.348 181.83c-9.274 58.567-15.825 118.15-13.304 177.39 1.973 46.377 22.174 137.48 22.174 137.48s34.238-188.46 39.913-283.83c4.216-70.847-4.435-212.87-4.435-212.87zM-252.17 2994.5s-34.591 120.21-44.348 181.83c-9.274 58.567-15.825 118.15-13.304 177.39 1.973 46.377 22.174 137.48 22.174 137.48s34.238-188.46 39.913-283.83c4.216-70.847-4.435-212.87-4.435-212.87z" opacity=".829" filter="url(#s)" fill="#ae8c70" transform="translate(221.4 -245.09) scale(.13145)"/><path d="M-361.17 2994.5s-34.427 120.24-44.348 181.83c-14.945 92.78-53.415 192.25-22.584 281.02 5.053 14.55 31.454 33.851 31.454 33.851s34.238-188.46 39.913-283.83c4.216-70.847-4.435-212.87-4.435-212.87z" transform="rotate(-3.467 -3984.52 -3315.085) scale(.13145)" opacity=".829" filter="url(#s)" fill="#ae8c70"/><path d="M-361.17 2994.5s-34.591 120.21-44.348 181.83c-9.274 58.567-15.825 118.15-13.304 177.39 1.973 46.377 22.174 137.48 22.174 137.48s34.238-188.46 39.913-283.83c4.216-70.847-4.435-212.87-4.435-212.87z" transform="matrix(-.1312 -.0068 -.00794 .11233 84.074 -184.69)" opacity=".829" filter="url(#s)" fill="#ae8c70"/><path d="M-361.17 2994.5s-34.591 120.21-44.348 181.83c-9.274 58.567-15.825 118.15-13.304 177.39 1.973 46.377 22.174 137.48 22.174 137.48s34.238-188.46 39.913-283.83c4.216-70.847-4.435-212.87-4.435-212.87z" transform="matrix(-.1312 -.00794 -.00794 .1312 100.767 -246.338)" opacity=".829" filter="url(#s)" fill="#ae8c70"/><path d="M-361.17 2994.5s-34.759 120.18-44.348 181.83c-14.698 94.492-53.465 196.65-19.892 286.19 4.753 12.677 28.761 28.678 28.761 28.678s34.238-188.46 39.913-283.83c4.216-70.847-4.435-212.87-4.435-212.87z" transform="matrix(-.1312 -.00794 -.00794 .1312 121.01 -246.338)" opacity=".829" filter="url(#s)" fill="#ae8c70"/><path d="M-580 2056.4l68.99 31.359 18.815 31.359 37.631 18.815 37.631-37.631-56.446-37.631z" filter="url(#w)" fill="#af9b82" transform="translate(221.4 -245.09) scale(.13145)"/><path d="M-199.05 2356.4l-35.479 70.348h-48.783l-48.783 26.609-83.478-41.719 96 5.37 29.609-25.738 46.566 5z" filter="url(#x)" fill="#5a3a28" transform="translate(221.4 -245.09) scale(.13145)"/><path d="M-835.34 2374.2l14.25 11.594s41.218 20.768 54.438 32.688c13.219 11.92 25.887 30.82 26 34.625.113 3.805 9.16 9.922 13.844 14.406 7.718 7.5 17.108 15.988 25.75 20.469 8.286 4.297 20.044 6.92 30.125 8.813s18.375 2.874 18.375 2.874l1.281-11.124s-7.902-4.936-17.562-6.75c-9.66-1.815-21.184-.702-27.062-3.75-6.234-3.233-15.683-11.362-23.094-18.563-7.332-7.125-13.758-11.181-13.875-11.311l-25.438-37.25a5.619 5.619 0 00-1.594-1.47z" style="block-progression:tb;text-indent:0;text-transform:none" filter="url(#y)" color="#000" fill="#b09c84" transform="translate(221.4 -245.09) scale(.13145)"/><path d="M139.22 59.138c-.959-.073-1.761 1.12-2.04 2.04-.287.949 1.294 2.225.583 2.915-.93.903-2.53-.571-3.79-.874-1.168-.281-2.362-1.27-3.497-.875-1.505.524-1.543 2.978-2.915 3.79-1.1.65-3.325-.608-3.79.582-.451 1.16 1.318 2.194 2.333 2.915 1.428 1.014 3.766.463 4.955 1.749 1.023 1.108 1.49 2.9 1.166 4.372-.327 1.482-3.303 2.03-2.915 3.498.425 1.605 3.093 1.21 4.664 1.749 1.54.529 3.038 1.558 4.663 1.457 2.344-.145 4.393-1.718 6.413-2.915 1.253-.743 3.163-1.205 3.497-2.623.4-1.692-1.446-3.168-2.331-4.664-.783-1.322-2-2.385-2.624-3.789-.689-1.55-.455-3.414-1.166-4.955-.756-1.641-1.404-4.234-3.206-4.372zM121.736 67.393c.44.445.776 1.02.968 1.625.152.477.303 1.035.121 1.5-.16.411-.567.72-.968.876-.529.205-1.143.125-1.694 0-.564-.128-1.366-.193-1.573-.75-.22-.593.718-1.116.726-1.75.005-.45-.516-.803-.484-1.25.041-.578.305-1.355.847-1.501.77-.208 1.489.675 2.057 1.25z" fill="#242735"/><path d="M-374.96 2272.7c-16.408-19.545-52.322 2.397-75.392 13.304-24.643 11.651-36.013 45.273-62.087 53.218-24.205 7.375-63.491-31.2-75.392-8.87-6.41 12.028 23.163 17.858 26.609 31.044 5.718 21.878-30.531 51.873-13.304 66.522 19.244 16.364 50.741-11.462 70.957-26.609 11.83-8.864 13.16-29.343 26.609-35.478 18.877-8.611 44.253 15.04 62.087 4.435 15.353-9.129 15.421-32.247 22.174-48.783 6.542-16.019 28.864-35.53 17.739-48.783z" filter="url(#l)" fill="url(#z)" transform="translate(221.4 -245.09) scale(.13145)"/><path d="M-185.12 2190.1c.027.164.381.682 1.063 1.375-.13-.217-.365-.623-.47-.781-.392-.597-.618-.75-.593-.594zm17.688 16.219c-1.691 2.836-3.78 5.503-6.406 7.656-13.838 11.344-30.736 9.339-40.156 6.438-6.1-1.879-10.627-4.11-14.531-6.25-.022.279.032.567 0 .844-.23 1.998-.778 4.059-1.5 6.125 5.377 10.79 5.715 21.429 5.469 28.875-.29 8.707-1.086 14.858-1 17.094a61.828 61.828 0 01-.282 8.812c5.795 1.97 13.234 5.632 20.062 14.781 6.623 8.873 8.002 17.002 8.313 22.781 1.531.635 2.99 1.192 4.906 2.281 5.534 3.149 13.23 10.21 16.375 19.594 3.339 9.962.854 20.652-1.875 26.312-.324.673-.59.97-.906 1.563 5.31-2.156 12.619-3.74 22.469-1.188 19.958 5.172 27.189 20.008 31.125 26.281.518.827.433.564.844 1.125.87-.218 1.14-.194 2.53-.656 6.018-1.996 15.276-6.494 29.126-7.781 11.718-1.09 19.479 1.093 23.719 1.656.548.073.34.031.718.062.936-1.366 4.65-6.157 8.313-15.188-.921 2.27-.096-.963-.313-8.875s-1.072-22.285 9.22-36.562c.074-.104.143-.178.218-.281-13.992-10.296-24.132-23.056-32.094-35.406-11.337-17.586-17.392-35.697-22.75-51.406a54.126 54.126 0 01-2.281-9.156c-4.911-.578-11.426-1.964-19.281-6.657-6.327-3.779-9.932-7.562-12.5-10.875-5.688 1.642-13.97 2.968-24.656-.78-1.05-.369-1.932-.807-2.875-1.22zm-39.45 103.5c-.098.058.53.388 1.25.719-.592-.373-1.165-.769-1.25-.719zm19.906 57.562c-1.77.557-2.038 1.18-.5.313.109-.062.375-.237.5-.313z" filter="url(#A)" fill="url(#B)" transform="translate(221.4 -245.09) scale(.13145)"/><path d="M-944.44 2327.1s39.66 46.502 60.224 57.812 76.534 18.347 76.534 18.347-52.863-24.11-71.581-34.026c-18.718-9.915-65.177-42.133-65.177-42.133z" transform="rotate(-35.546 -386.33 -156.528) scale(.13145)" opacity=".953" filter="url(#r)" fill="#522c29"/><path d="M-745.03 2012.7c-11.763 1.993-21.356 10.113-33.125 12.062-14.634 4.165-30.096 3.767-45 6-18.741 7.587-27.126 28.247-37.12 44.336-5.189 7.929-9.205 18.025-4.942 27.258 1.359 7.465 3.75 14.587 7.281 21.188 2.821 7.798-1.996 18.12-11.03 18.156-11.254 1.232-21.073-8.678-32.368-4.689-8.242.388-16.738 1.663-23.164 7.501-15.824 11.538-29.993 28.044-33.438 47.875-.44 6.044 1.124 12.8 5.969 16.844 44.11-.82 88.271-4.39 131.22-14.125 10.94-4.843 24.372-4.468 33.375-13.03 6.048-8.317 6.57-19.38 11.136-28.486 4.634-12.459 13.012-23.13 24.27-30.078 27.21-20.125 60.881-31.723 95.031-29.312 20.174-2.576 32.961-21.92 52.594-26.156 12.04-4.266 27.345-9.664 30.625-23.688.902-3.803-.978-3.022-3.719-1.437-8.004 3.982-18.233 4.596-25.469-1.094-10.868-4.245-24.792.525-33.839-8.505-10.736-8.127-25.449-15.697-39.036-10.432-7.788 5.42-14.754 16.112-25.719 13.719-13.526-2.085-19.489-16.83-31.812-21.438-3.658-1.738-7.664-2.704-11.719-2.47z" filter="url(#C)" fill="url(#D)" transform="translate(221.4 -245.09) scale(.13145)"/><path d="M-657.92 2441.9l7.76 19.957 18.849 9.978 25.5-12.196 13.304-21.065-6.652-26.609s-14.413-16.63-19.957-16.63c-5.544 0-19.957-6.652-19.957-6.652l-18.848 5.544 9.978 14.413z" filter="url(#E)" fill-opacity=".518" transform="translate(221.4 -245.09) scale(.13145)"/><path d="M84.262 2585l97.566 31.044-13.304 48.783v44.348l48.783 39.913 88.696-31.044 17.739-97.566-119.74-110.87-97.566-39.913 22.174 62.087z" filter="url(#F)" fill="#633421" transform="translate(221.4 -245.09) scale(.13145)"/></svg>