<?xml version="1.0"?>
<svg xmlns="http://www.w3.org/2000/svg" width="498" height="450" viewBox="0 0 498 450">
  <path d="M377.478 156.433c13.033 8.256 28.265 21.266 24.423 32.269l-1.08 25.359-13.42-13.787c-9.431 3.605-32.038 8.817-42.519 9.035-17.26-.223-26.652-8.862-43.636 1.298l-1.096.654c-12.647 8.268-21.309 11.171-38.226 9.111-21.275-2.737-39.836-.396-60.98 1.029-11.833 1.45-14.768 8.494-15.827 16.893-.438 10.108 1.872 12.869 3.027 21.577 1.55 11.671-7.697 21.527-12.359 32.489-3.949 10.356-5.505 25.609-5.002 40.322l179.846-30.268 146.434 140.204-57.383 5.717-268.571-109.611c.687 9.332 2.211 18.126 4.481 24.922 4.924 14.73 24.044 29.126 24.659 40.979.647 12.587-12.835 14.614-25.648 11.737-19.551-4.649-20.302-.741-33.244 10.207-28.022 23.71-43.239 2.735-69.752 5.272-16.352 1.564-30.876 1.077-44.098-7.299-10.977-7.551-10.14-17.906-12.025-28.078-1.415-7.64.417-13.763 10.22-17.184 13.321-2.96 30.954-.843 39.338-8.362 9.207-8.254 7.94-8.069 19.585-15.053 20.483-12.289 13.966-23.913 13.811-41.996-.048-5.405.361-10.396.984-15.773 2.042-16.689 2.379-33.046 1.614-49.785-.246-5.081-.572-10.325-2.94-15.126-11.36-18.309-30.317-23.034-23.684-48.36 8.619-32.916 43.515-15.695 61.86-21.829 11.324-3.788 16.572-5.611 28.757-8.215 4.662-.996 9.354-1.934 14.03-2.898 12.739-2.645 23.558-4.334 36.596-5.825 22.162-2.537 24.103-16.709 57.146-19.373 21.243-1.787 19.505-5.463 36.465-11.27 21.734-7.441 36.668-.077 46.059 15.137 8.119 13.154 6.802 15.909 22.155 25.881" fill="#D0CFCA"/>
  <path d="M439.68 210.512v237.823L.464 341.45V103.627l209.703-13.585 229.513 120.47" fill="#DFB142"/>
  <path d="M.464 103.627c52.561-52.631 163.683-88.969 292.369-89.162L439.68 210.512.464 103.627" fill="#F0C55C"/>
  <path d="M439.68 272.823v106.969L.464 272.907V165.939L439.68 272.823" fill="#685227"/>
  <path d="M362.421 63.072c13.03 10.809 28.264 27.845 24.422 42.253l-1.08 33.206-13.42-18.052c-9.43 4.72-32.038 11.544-42.521 11.831-17.257-.292-26.648-11.607-43.634 1.698l-1.097.858c-12.648 10.827-21.307 14.628-38.227 11.929-21.271-3.583-39.836-.516-60.982 1.348-11.827 1.899-14.768 11.123-15.823 22.121-.442 13.235 1.871 16.853 3.028 28.255 1.546 15.282-7.699 28.188-12.361 42.541-7.044 24.185-6.47 68.756-.193 93.349 4.922 19.289 24.044 38.139 24.654 53.661.652 16.481-12.833 19.135-25.646 15.366-19.55-6.084-20.299-.971-33.243 13.367-28.023 31.049-43.239 3.582-69.751 6.902-16.354 2.051-30.878 1.413-44.099-9.554-10.976-9.892-10.14-23.449-12.025-36.77-1.416-10.006.417-18.019 10.221-22.504 13.32-3.873 30.952-1.1 39.336-10.946 9.206-10.809 7.941-10.565 19.584-19.713 20.486-16.091 13.965-31.311 13.81-54.989-.043-7.078.363-13.614.989-20.656 2.037-21.854 2.374-43.272 1.615-65.192-.248-6.653-.575-13.52-2.944-19.807-11.358-23.975-30.313-30.163-23.683-63.326 8.619-43.103 43.512-20.551 61.857-28.584 11.327-4.96 16.574-7.346 28.76-10.757 4.662-1.305 9.354-2.533 14.03-3.794 12.738-3.465 23.558-5.676 36.596-7.63 22.159-3.32 24.1-21.879 57.148-25.366 21.24-2.341 19.505-7.155 36.465-14.758 21.732-9.743 36.666-.101 46.058 19.821 8.119 17.226 6.8 20.832 22.156 33.892" fill="#A02529"/>
  <path d="M377.222 77.803c7.124 8.793 11.987 18.654 9.621 27.522l-1.08 33.206-13.42-18.052c-9.43 4.72-32.038 11.544-42.521 11.831-17.257-.292-26.648-11.607-43.634 1.698l-1.097.858c-12.648 10.827-21.307 14.628-38.227 11.929-21.271-3.583-39.836-.516-60.982 1.348-11.827 1.899-14.768 11.123-15.823 22.121-.442 13.235 1.871 16.853 3.028 28.255 1.546 15.282-7.699 28.188-12.361 42.541-7.044 24.185-6.47 68.756-.193 93.349 4.922 19.289 24.044 38.139 24.654 53.661.652 16.481-12.833 19.135-25.646 15.366-19.55-6.084-20.299-.971-33.243 13.367-28.023 31.049-43.239 3.582-69.751 6.902-15.141 1.899-28.712 1.493-41.137-7.287.476-.166.943-.332 1.396-.495 23.368-8.394 31.637-19.769 59.981-14.457 21.654 3.913 21.975 4.964 37.496-9.13 8.007-7.271 16.552-9.662 22.545-15.757 10.958-11.139 6.227-28.445 4.414-42.618-1.452-11.354-2.697-22.268-3.374-33.714-1.566-29.853-1.719-50.974 8.301-79.646 10.53-34.937-3.291-33.348-9.493-61.976-3.117-18.2 5.234-28.211 22.646-32.171 15.487-3.364 25.704-3.496 41.116-9.199 25.951-9.602 37.422 8.904 67.217-5.859 22.644-11.223 20.345-10.165 46.158-10.843 8.997-.237 17.851-.23 26.847-.01 14.217.396 32.046-.664 35.746-17.238.393-1.761.655-3.607.816-5.502" fill="#852124"/>
  <path d="M116.994 372.295c-20.553 20.923-31.954 6.166-56.608 12.323-18.961 5.186-19.871 9.466-40.451 2.527-22.373-8.016-11.928-17.912 3.504-24.698 11.921-5.023 21.578-8.502 33.233-14.632 9.742-5.123 18.142-7.282 27.515-11.502 11.744-5.808 5.314-12.488 7.646-25.825 5.349-30.579 6.073-47.8 4.847-78.506-.231-5.767-3.185-41.107 8.653-36.853 7.234 2.599 8.542 31.06 9.33 38.441 2.23 20.824 2.091 36.403 1.909 57.08-.181 21.217 1.374 22.598 8.841 42.45 6.402 17.025 4.136 25.897-8.419 39.195zM277.376 26.93c-20.976 7.501-27.407 6.552-43.736 23.032-9.197 9.278-16.912 11.398-29.852 11.3-16.606-.342-27.086-5.267-42.972 2.346-2.224 1.068-4.443 2.137-6.672 3.197-12.88 6.065-39.173 7.427-46.335 18.277-5.553 8.416 1.732 13.75 9.859 15.129 14.581 2.47 35.647 1.647 49.773-2.396 28.514-8.147 35.487-9.738 64.674-2.416 19.96 3.105 23.315-9.218 38.537-18.142 19.936-11.685 40.507-1.895 61.678-3.116 11.07-.586 22.104-3.308 12.786-16.704-4.959-7.13-16.898-16.405-23.884-24.079-15.398-16.919-24.079-13.487-43.856-6.428" fill="#BB242A"/>
  <path d="M213.284 102.237c22.024 0 39.984-8.513 39.984-18.952 0-10.439-17.96-18.954-39.984-18.954-22.023 0-39.983 8.515-39.983 18.954s17.96 18.952 39.983 18.952M296.932 67.335c18.294 0 33.214-7.073 33.214-15.744 0-8.672-14.92-15.745-33.214-15.745-18.294 0-33.217 7.073-33.217 15.745 0 8.671 14.923 15.744 33.217 15.744" fill="#A02529"/>
  <path d="M271.697 1.555c3.085 0 6.064.456 8.876 1.299a30.886 30.886 0 018.881-1.299c17.035 0 30.843 13.808 30.843 30.843 0 17.033-13.808 30.841-30.843 30.841-3.088 0-6.068-.455-8.881-1.299a30.828 30.828 0 01-8.876 1.299c-17.034 0-30.843-13.808-30.843-30.841 0-17.035 13.809-30.843 30.843-30.843" fill="#852124"/>
  <path d="M300.104 3.445c11.786 4.338 20.193 15.663 20.193 28.953 0 17.033-13.808 30.841-30.843 30.841-3.088 0-6.068-.455-8.881-1.299a30.828 30.828 0 01-8.876 1.299c-14.377 0-26.455-9.834-29.875-23.142 9.644 13.509 21.743 17.183 36.559 9.986 34.192 11.571 47.175-24.922 21.723-46.638" fill="#61191B"/>
  <path d="M297.153 16.662c-2.957-2.872-6.971-5.351-11.219-5.291-6.467.094-6.11 1.312-12.702-1.431-3.486-1.451-6.721-1.174-10.34-.284-5.15 1.265-9.283 3.935-12.747 7.917-6.283 7.647-4.213 15.753 5.261 19.11l.623.219c2.622.871 10.701 3.409 12.963 2.956 4.753-.953 7.239-6.055 13.094-1.898 4.797 3.471 5.534 5.658 12.11 4.976 3.505-.557 4.96-3.03 6.366-6.087 2.818-6.128 2.16-13.319-2.035-18.664-.443-.555-.881-1.011-1.374-1.523" fill="#A02529"/>
  <path d="M182.906 23.052c3.717 0 7.304.549 10.689 1.565a37.13 37.13 0 0110.688-1.565c20.507 0 37.128 16.623 37.128 37.127 0 20.505-16.621 37.127-37.128 37.127a37.13 37.13 0 01-10.688-1.564 37.121 37.121 0 01-10.689 1.564c-20.505 0-37.128-16.622-37.128-37.127 0-20.504 16.623-37.127 37.128-37.127" fill="#852124"/>
  <path d="M217.107 25.326c14.185 5.222 24.304 18.856 24.304 34.853 0 20.505-16.621 37.127-37.128 37.127a37.13 37.13 0 01-10.688-1.564 37.121 37.121 0 01-10.689 1.564c-17.304 0-31.842-11.838-35.959-27.857v-.001c11.605 16.262 26.172 20.685 44.009 12.021 41.159 13.93 56.788-30.002 26.151-56.143" fill="#61191B"/>
  <path d="M213.552 41.237c-3.562-3.458-8.392-6.441-13.506-6.367-7.785.11-7.355 1.578-15.289-1.724-4.2-1.749-8.09-1.414-12.447-.342-6.201 1.524-11.172 4.736-15.348 9.529-7.561 9.205-5.069 18.965 6.336 23.005l.748.264c3.16 1.047 12.886 4.103 15.604 3.557 5.724-1.147 8.715-7.289 15.765-2.284 5.774 4.18 6.662 6.812 14.581 5.991 4.216-.671 5.967-3.648 7.659-7.328 3.393-7.377 2.599-16.033-2.446-22.468-.54-.668-1.063-1.217-1.657-1.833M88.513 390.871c22.02 0 39.982-8.512 39.982-18.953 0-10.439-17.962-18.954-39.982-18.954-22.024 0-39.984 8.515-39.984 18.954 0 10.441 17.96 18.953 39.984 18.953" fill="#A02529"/>
  <path d="M58.132 311.686c3.716 0 7.304.548 10.688 1.563a37.185 37.185 0 0110.691-1.563c20.505 0 37.128 16.621 37.128 37.126 0 20.507-16.623 37.13-37.128 37.13-3.716 0-7.304-.551-10.691-1.567a37.116 37.116 0 01-10.688 1.567c-20.503 0-37.126-16.623-37.126-37.13 0-20.505 16.623-37.126 37.126-37.126" fill="#852124"/>
  <path d="M92.335 313.96c14.186 5.222 24.304 18.856 24.304 34.852 0 20.507-16.623 37.13-37.128 37.13-3.716 0-7.304-.551-10.691-1.567a37.116 37.116 0 01-10.688 1.567c-17.304 0-31.843-11.841-35.958-27.86 11.605 16.262 26.171 20.684 44.008 12.021 41.162 13.93 56.788-30.002 26.153-56.143" fill="#61191B"/>
  <path d="M88.779 329.871c-3.56-3.458-8.394-6.441-13.506-6.369-7.784.113-7.354 1.58-15.291-1.723-4.197-1.748-8.089-1.412-12.447-.342-6.196 1.523-11.173 4.736-15.345 9.53-7.562 9.205-5.071 18.965 6.334 23.003l.748.267c3.16 1.047 12.887 4.102 15.604 3.556 5.726-1.148 8.715-7.29 15.765-2.284 5.777 4.18 6.662 6.811 14.581 5.989 4.216-.671 5.966-3.647 7.659-7.327 3.392-7.377 2.6-16.034-2.446-22.469-.537-.667-1.062-1.214-1.656-1.831" fill="#A02529"/>
</svg>
